<?xml version="1.0" standalone="no"?>
<!DOCTYPE svg PUBLIC "-//W3C//DTD SVG 20010904//EN"
 "http://www.w3.org/TR/2001/REC-SVG-20010904/DTD/svg10.dtd">
<svg version="1.0" xmlns="http://www.w3.org/2000/svg"
 width="317.000000pt" height="315.000000pt" viewBox="0 0 317.000000 315.000000"
 preserveAspectRatio="xMidYMid meet">

<g transform="translate(0.000000,315.000000) scale(0.100000,-0.100000)"
fill="#000000" stroke="none">
<path d="M1495 2899 c-122 -8 -201 -24 -324 -66 -440 -147 -763 -493 -881
-942 -33 -127 -42 -200 -41 -336 0 -155 18 -267 67 -412 72 -216 163 -363 322
-526 103 -105 196 -174 322 -240 399 -209 837 -213 1243 -11 115 57 205 122
311 224 196 189 298 359 371 620 91 328 53 664 -113 985 -115 223 -331 436
-560 554 -228 116 -469 167 -717 150z m248 -164 c54 -41 175 -176 240 -267 97
-136 175 -329 212 -528 48 -254 16 -577 -86 -870 -16 -46 -29 -86 -29 -87 0
-2 27 -3 61 -3 65 0 63 -2 92 82 5 15 11 15 66 2 82 -19 195 -74 256 -125 28
-23 50 -45 50 -49 0 -16 -103 -93 -170 -125 -38 -19 -98 -41 -133 -49 l-62
-14 -15 35 c-8 20 -15 39 -15 43 0 4 -6 10 -12 12 -7 3 -263 6 -568 7 l-555 2
-103 -51 c-98 -47 -107 -50 -184 -50 -81 0 -81 0 -114 38 -74 82 -229 331
-207 332 5 1 93 0 197 0 l189 -1 96 -41 c59 -25 118 -42 153 -46 l58 -5 0 40
c0 56 -45 205 -83 278 -50 94 -173 211 -285 268 -113 59 -198 91 -316 121
l-91 23 2 54 c5 112 125 418 158 405 9 -3 44 -13 78 -22 179 -46 356 -118 470
-191 48 -30 75 -42 89 -37 19 6 18 8 -13 41 -80 83 -264 217 -451 328 -37 22
-68 44 -68 49 0 21 172 176 259 233 l93 62 78 -39 c112 -56 226 -146 386 -302
77 -76 145 -138 152 -138 25 0 20 22 -19 92 -67 118 -169 245 -288 361 -61 59
-111 109 -111 111 0 4 130 35 195 45 28 5 107 9 176 10 l126 1 46 -35z"/>
<path d="M1734 1411 c-101 -46 -115 -194 -25 -257 111 -78 261 19 236 153 -8
46 -56 97 -103 111 -51 16 -59 15 -108 -7z"/>
</g>
</svg>
