<?xml version="1.0" standalone="no"?>
<!DOCTYPE svg PUBLIC "-//W3C//DTD SVG 20010904//EN"
 "http://www.w3.org/TR/2001/REC-SVG-20010904/DTD/svg10.dtd">
<svg version="1.0" xmlns="http://www.w3.org/2000/svg"
 width="32.000000pt" height="32.000000pt" viewBox="0 0 32.000000 32.000000"
 preserveAspectRatio="xMidYMid meet">

<g transform="translate(0.000000,32.000000) scale(0.100000,-0.100000)"
fill="#000000" stroke="none">
<path d="M89 273 c-58 -36 -78 -127 -40 -189 20 -32 74 -64 110 -64 62 0 121
52 135 117 10 45 -23 117 -63 137 -39 21 -109 20 -142 -1z m112 -25 c16 -26
19 -45 16 -91 -2 -41 0 -56 8 -53 14 5 42 -10 33 -19 -9 -9 -181 -10 -196 -2
-25 16 -12 29 23 23 33 -7 34 -6 27 16 -5 13 -23 30 -40 38 -33 15 -38 26 -24
48 7 10 16 10 38 2 l29 -10 -24 18 c-44 35 -3 57 47 25 27 -17 27 -17 10 3
-24 28 -23 34 7 34 18 0 31 -10 46 -32z"/>
<path d="M172 129 c2 -6 8 -10 13 -10 5 0 11 4 13 10 2 6 -4 11 -13 11 -9 0
-15 -5 -13 -11z"/>
</g>
</svg>
